<svg width="2273" height="528" viewBox="0 0 2273 528" fill="none" xmlns="http://www.w3.org/2000/svg">
<path fill-rule="evenodd" clip-rule="evenodd" d="M343.245 298.584V249.13H345.791V298.584C345.778 311.094 340.801 323.087 331.954 331.932C323.106 340.776 311.111 345.749 298.6 345.759H67.1909C54.6804 345.749 42.685 340.776 33.8375 331.932C24.9901 323.087 20.0135 311.094 20 298.584V67.1881C20.0135 54.6772 24.9897 42.6825 33.8368 33.836C42.6838 24.9894 54.6792 20.0135 67.1909 20H298.6C311.112 20.0135 323.107 24.9894 331.955 33.836C340.802 42.6825 345.778 54.6772 345.791 67.1881V119.644H343.245V67.1881C343.232 55.3524 338.524 44.0053 330.154 35.6362C321.785 27.2671 310.437 22.5594 298.6 22.5459H67.1909C55.3545 22.5594 44.0067 27.2671 35.6371 35.6362C27.2675 44.0053 22.5595 55.3524 22.546 67.1881V298.584C22.5595 310.418 27.2679 321.764 35.6379 330.131C44.0078 338.498 55.3556 343.203 67.1909 343.213H298.6C310.435 343.2 321.781 338.494 330.15 330.128C338.519 321.761 343.228 310.417 343.245 298.584ZM479.634 196.6C488.817 205.782 493.982 218.231 493.995 231.216V459.025C493.982 472.01 488.817 484.459 479.634 493.641C470.451 502.823 458 507.987 445.013 508H217.186C204.199 507.987 191.748 502.823 182.565 493.641C173.382 484.459 168.217 472.01 168.204 459.025V409.633H174.471V459.025C174.484 470.348 178.988 481.203 186.996 489.21C195.004 497.217 205.861 501.721 217.186 501.734H445.013C456.338 501.721 467.195 497.217 475.202 489.21C483.21 481.203 487.715 470.348 487.728 459.025V231.216C487.715 219.893 483.21 209.037 475.202 201.031C467.195 193.024 456.338 188.52 445.013 188.507H217.186C205.861 188.52 195.004 193.024 186.996 201.031C178.988 209.037 174.484 219.893 174.471 231.216V279.969H168.204V231.216C168.217 218.231 173.382 205.782 182.565 196.6C191.748 187.418 204.199 182.254 217.186 182.241H445.013C458 182.254 470.451 187.418 479.634 196.6Z" fill="url(#paint0_linear_1160_125)"/>
<path d="M343.245 249.13V229.304H323.419V249.13H343.245ZM343.245 298.584L363.071 298.612L363.071 298.598V298.584H343.245ZM345.791 249.13H365.617V229.304H345.791V249.13ZM345.791 298.584L365.617 298.605L365.617 298.595V298.584H345.791ZM331.954 331.932L345.971 345.953L345.971 345.953L331.954 331.932ZM298.6 345.759V365.585H298.608L298.616 365.585L298.6 345.759ZM67.1909 345.759L67.1748 365.585L67.1829 365.585H67.1909V345.759ZM33.8375 331.932L19.8207 345.953L19.8207 345.953L33.8375 331.932ZM20 298.584H0.173897V298.595L0.173908 298.605L20 298.584ZM20 67.1881L0.173908 67.1667L0.173897 67.1774V67.1881H20ZM33.8368 33.836L19.818 19.8164L19.818 19.8164L33.8368 33.836ZM67.1909 20V0.173897H67.1802L67.1695 0.173908L67.1909 20ZM298.6 20L298.622 0.173908L298.611 0.173897H298.6V20ZM331.955 33.836L317.936 47.8555L317.936 47.8556L331.955 33.836ZM345.791 67.1881H365.617V67.1774L365.617 67.1667L345.791 67.1881ZM345.791 119.644V139.47H365.617V119.644H345.791ZM343.245 119.644H323.419V139.47H343.245V119.644ZM343.245 67.1881H363.071V67.1768L363.071 67.1655L343.245 67.1881ZM330.154 35.6362L316.135 49.6557L316.135 49.6558L330.154 35.6362ZM298.6 22.5459L298.623 2.7198L298.612 2.71979H298.6V22.5459ZM67.1909 22.5459V2.71979H67.1796L67.1683 2.7198L67.1909 22.5459ZM35.6371 35.6362L21.6183 21.6166L21.6183 21.6166L35.6371 35.6362ZM22.546 67.1881L2.71995 67.1655L2.71994 67.1768V67.1881H22.546ZM22.546 298.584H2.71994V298.595L2.71995 298.607L22.546 298.584ZM35.6379 330.131L21.6211 344.153L21.6211 344.153L35.6379 330.131ZM67.1909 343.213L67.1739 363.04L67.1824 363.04H67.1909V343.213ZM298.6 343.213V363.04H298.612L298.623 363.039L298.6 343.213ZM493.995 231.216H513.821V231.206L513.821 231.196L493.995 231.216ZM479.634 196.6L493.652 182.58L493.652 182.58L479.634 196.6ZM493.995 459.025L513.821 459.045L513.821 459.035V459.025H493.995ZM479.634 493.641L493.652 507.661L493.652 507.661L479.634 493.641ZM445.013 508V527.826H445.023L445.033 527.826L445.013 508ZM217.186 508L217.165 527.826L217.176 527.826H217.186V508ZM168.204 459.025H148.378V459.035L148.378 459.045L168.204 459.025ZM168.204 409.633V389.807H148.378V409.633H168.204ZM174.471 409.633H194.297V389.807H174.471V409.633ZM174.471 459.025H154.644V459.036L154.644 459.048L174.471 459.025ZM186.996 489.21L201.014 475.19L201.014 475.19L186.996 489.21ZM217.186 501.734L217.162 521.56L217.174 521.56H217.186V501.734ZM445.013 501.734V521.56H445.024L445.036 521.56L445.013 501.734ZM487.728 459.025L507.554 459.048L507.554 459.036V459.025H487.728ZM487.728 231.216H507.554V231.205L507.554 231.193L487.728 231.216ZM445.013 188.507L445.036 168.681L445.024 168.681H445.013V188.507ZM217.186 188.507V168.681H217.174L217.163 168.681L217.186 188.507ZM186.996 201.031L201.014 215.051L201.014 215.051L186.996 201.031ZM174.471 231.216L154.644 231.193L154.644 231.205V231.216H174.471ZM174.471 279.969V299.795H194.297V279.969H174.471ZM168.204 279.969H148.378V299.795H168.204V279.969ZM168.204 231.216L148.378 231.196L148.378 231.206V231.216H168.204ZM182.565 196.6L168.547 182.58L168.547 182.58L182.565 196.6ZM217.186 182.241V162.415H217.176L217.165 162.415L217.186 182.241ZM445.013 182.241L445.033 162.415L445.023 162.415H445.013V182.241ZM323.419 249.13V298.584H363.071V249.13H323.419ZM345.791 229.304H343.245V268.956H345.791V229.304ZM365.617 298.584V249.13H325.965V298.584H365.617ZM345.971 345.953C358.532 333.396 365.598 316.367 365.617 298.605L325.965 298.563C325.957 305.82 323.07 312.778 317.937 317.91L345.971 345.953ZM298.616 365.585C316.378 365.571 333.409 358.51 345.971 345.953L317.937 317.91C312.804 323.042 305.844 325.927 298.584 325.933L298.616 365.585ZM67.1909 365.585H298.6V325.933H67.1909V365.585ZM19.8207 345.953C32.3822 358.51 49.413 365.571 67.1748 365.585L67.2069 325.933C59.9478 325.927 52.9877 323.042 47.8544 317.91L19.8207 345.953ZM0.173908 298.605C0.193054 316.367 7.25906 333.396 19.8207 345.953L47.8544 317.91C42.7211 312.778 39.8339 305.82 39.8261 298.563L0.173908 298.605ZM0.173897 67.1881V298.584H39.8261V67.1881H0.173897ZM19.818 19.8164C7.2579 32.3757 0.193044 49.4046 0.173908 67.1667L39.8261 67.2094C39.8339 59.9497 42.7215 52.9893 47.8555 47.8555L19.818 19.8164ZM67.1695 0.173908C49.4074 0.193042 32.3781 7.25705 19.818 19.8164L47.8555 47.8555C52.9896 42.7217 59.951 39.8339 67.2122 39.8261L67.1695 0.173908ZM298.6 0.173897H67.1909V39.8261H298.6V0.173897ZM345.973 19.8164C333.413 7.25705 316.384 0.193042 298.622 0.173908L298.579 39.8261C305.84 39.8339 312.802 42.7217 317.936 47.8555L345.973 19.8164ZM365.617 67.1667C365.598 49.4046 358.533 32.3757 345.973 19.8163L317.936 47.8556C323.07 52.9893 325.957 59.9497 325.965 67.2094L365.617 67.1667ZM365.617 119.644V67.1881H325.965V119.644H365.617ZM343.245 139.47H345.791V99.8179H343.245V139.47ZM323.419 67.1881V119.644H363.071V67.1881H323.419ZM316.135 49.6558C320.792 54.3124 323.412 60.6257 323.419 67.2106L363.071 67.1655C363.052 50.079 356.255 33.6982 344.173 21.6166L316.135 49.6558ZM298.578 42.372C305.164 42.3795 311.479 44.9991 316.135 49.6557L344.173 21.6166C332.091 9.53502 315.709 2.73925 298.623 2.7198L298.578 42.372ZM67.1909 42.372H298.6V2.71979H67.1909V42.372ZM49.6558 49.6558C54.3128 44.9991 60.627 42.3795 67.2134 42.372L67.1683 2.7198C50.0819 2.73925 33.7006 9.53502 21.6183 21.6166L49.6558 49.6558ZM42.3721 67.2106C42.3796 60.6257 44.999 54.3124 49.6558 49.6558L21.6183 21.6166C9.536 33.6982 2.73941 50.079 2.71995 67.1655L42.3721 67.2106ZM42.3721 298.584V67.1881H2.71994V298.584H42.3721ZM49.6546 316.11C44.9986 311.455 42.3796 305.144 42.3721 298.561L2.71995 298.607C2.73942 315.693 9.5372 332.073 21.6211 344.153L49.6546 316.11ZM67.2078 323.387C60.6235 323.382 54.3107 320.764 49.6546 316.11L21.6211 344.153C33.705 356.233 50.0877 363.025 67.1739 363.04L67.2078 323.387ZM298.6 323.387H67.1909V363.04H298.6V323.387ZM316.133 316.106C311.476 320.761 305.163 323.38 298.578 323.387L298.623 363.039C315.706 363.02 332.085 356.227 344.167 344.149L316.133 316.106ZM323.419 298.556C323.41 305.139 320.79 311.451 316.133 316.106L344.167 344.149C356.248 332.072 363.047 315.695 363.071 298.612L323.419 298.556ZM513.821 231.196C513.802 212.959 506.548 195.475 493.652 182.58L465.615 210.62C471.085 216.089 474.161 223.503 474.169 231.236L513.821 231.196ZM513.821 459.025V231.216H474.169V459.025H513.821ZM493.652 507.661C506.548 494.766 513.802 477.282 513.821 459.045L474.169 459.004C474.161 466.737 471.085 474.152 465.616 479.621L493.652 507.661ZM445.033 527.826C463.27 527.807 480.756 520.555 493.652 507.661L465.616 479.621C460.146 485.09 452.729 488.166 444.993 488.174L445.033 527.826ZM217.186 527.826H445.013V488.174H217.186V527.826ZM168.547 507.661C181.443 520.555 198.928 527.807 217.165 527.826L217.206 488.174C209.47 488.166 202.053 485.09 196.583 479.621L168.547 507.661ZM148.378 459.045C148.396 477.282 155.65 494.766 168.547 507.661L196.583 479.621C191.113 474.152 188.038 466.737 188.03 459.004L148.378 459.045ZM148.378 409.633V459.025H188.03V409.633H148.378ZM174.471 389.807H168.204V429.46H174.471V389.807ZM194.297 459.025V409.633H154.644V459.025H194.297ZM201.014 475.19C196.719 470.895 194.304 465.073 194.297 459.001L154.644 459.048C154.664 475.622 161.257 491.511 172.978 503.23L201.014 475.19ZM217.209 481.908C211.133 481.901 205.309 479.484 201.014 475.19L172.978 503.23C184.698 514.949 200.589 521.541 217.162 521.56L217.209 481.908ZM445.013 481.908H217.186V521.56H445.013V481.908ZM461.184 475.19C456.889 479.484 451.065 481.901 444.99 481.908L445.036 521.56C461.61 521.541 477.5 514.949 489.221 503.23L461.184 475.19ZM467.902 459.001C467.895 465.073 465.479 470.895 461.184 475.19L489.221 503.23C500.941 491.511 507.535 475.622 507.554 459.048L467.902 459.001ZM467.902 231.216V459.025H507.554V231.216H467.902ZM461.184 215.051C465.479 219.345 467.895 225.167 467.902 231.239L507.554 231.193C507.535 214.619 500.941 198.729 489.221 187.011L461.184 215.051ZM444.99 208.333C451.065 208.34 456.889 210.756 461.184 215.051L489.221 187.011C477.5 175.292 461.61 168.7 445.036 168.681L444.99 208.333ZM217.186 208.333H445.013V168.681H217.186V208.333ZM201.014 215.051C205.31 210.756 211.134 208.34 217.209 208.333L217.163 168.681C200.589 168.7 184.698 175.292 172.978 187.011L201.014 215.051ZM194.297 231.239C194.304 225.167 196.719 219.345 201.014 215.051L172.978 187.011C161.257 198.729 154.664 214.619 154.644 231.193L194.297 231.239ZM194.297 279.969V231.216H154.644V279.969H194.297ZM168.204 299.795H174.471V260.142H168.204V299.795ZM148.378 231.216V279.969H188.03V231.216H148.378ZM168.547 182.58C155.65 195.475 148.396 212.959 148.378 231.196L188.03 231.236C188.038 223.503 191.113 216.089 196.583 210.62L168.547 182.58ZM217.165 162.415C198.928 162.433 181.443 169.685 168.547 182.58L196.583 210.62C202.053 205.151 209.47 202.075 217.206 202.067L217.165 162.415ZM445.013 162.415H217.186V202.067H445.013V162.415ZM493.652 182.58C480.756 169.685 463.27 162.433 445.033 162.415L444.993 202.067C452.729 202.075 460.146 205.151 465.616 210.62L493.652 182.58Z" fill="url(#paint1_linear_1160_125)"/>
<path d="M862.541 326.408C857.341 341.99 849.541 355.236 839.141 366.143C828.741 376.791 816.521 384.842 802.481 390.296C788.442 395.75 772.972 398.477 756.072 398.477C731.372 398.477 709.922 393.153 691.723 382.505C673.523 371.857 659.483 356.664 649.603 336.926C639.723 317.188 634.783 293.554 634.783 266.025C634.783 238.496 639.723 214.862 649.603 195.124C659.483 175.386 673.523 160.193 691.723 149.545C709.922 138.897 731.242 133.573 755.682 133.573C772.582 133.573 787.792 135.91 801.311 140.585C815.091 145.26 826.791 152.272 836.411 161.622C846.031 170.971 853.441 182.658 858.641 196.683L819.251 214.213C814.051 198.89 806.511 187.723 796.631 180.71C786.752 173.439 773.882 169.803 758.022 169.803C742.162 169.803 728.252 173.568 716.292 181.1C704.332 188.632 694.973 199.539 688.213 213.823C681.713 228.107 678.463 245.508 678.463 266.025C678.463 286.283 681.583 303.683 687.823 318.227C694.063 332.511 703.032 343.419 714.732 350.95C726.432 358.482 740.472 362.248 756.852 362.248C772.712 362.248 786.362 358.222 797.801 350.171C809.501 341.86 817.821 329.524 822.761 313.163L862.541 326.408Z" fill="black"/>
<path d="M1255.56 398.477C1244.12 398.477 1233.59 396.27 1223.97 391.855C1214.61 387.44 1206.68 381.336 1200.18 373.545C1193.68 365.494 1188.87 356.534 1185.75 346.665L1190.82 340.042L1187.7 394.582H1151.04V112.147H1192.77V248.884L1188.09 242.262C1193.03 228.757 1201.48 217.719 1213.44 209.149C1225.4 200.319 1239.83 195.903 1256.73 195.903C1272.33 195.903 1286.63 199.929 1299.63 207.98C1312.89 216.031 1323.29 227.588 1330.83 242.651C1338.37 257.714 1342.14 276.024 1342.14 297.58C1342.14 318.616 1338.24 336.666 1330.44 351.729C1322.9 366.793 1312.5 378.35 1299.24 386.401C1286.24 394.452 1271.68 398.477 1255.56 398.477ZM1246.59 364.975C1263.49 364.975 1276.62 359.001 1285.98 347.055C1295.6 334.848 1300.41 318.227 1300.41 297.19C1300.41 276.154 1295.73 259.662 1286.37 247.716C1277.01 235.769 1263.88 229.796 1246.98 229.796C1236.06 229.796 1226.57 232.652 1218.51 238.366C1210.45 243.82 1204.08 251.611 1199.4 261.74C1194.98 271.869 1192.77 283.945 1192.77 297.969C1192.77 311.734 1194.98 323.681 1199.4 333.809C1203.82 343.678 1210.06 351.34 1218.12 356.794C1226.44 362.248 1235.93 364.975 1246.59 364.975Z" fill="black"/>
<path d="M1507.88 269.531C1507.88 256.546 1504.24 246.547 1496.96 239.535C1489.94 232.263 1480.19 228.627 1467.71 228.627C1456.01 228.627 1446 231.354 1437.68 236.808C1429.36 242.262 1423.25 251.092 1419.35 263.298L1384.25 248.495C1389.19 232.652 1398.81 219.927 1413.11 210.317C1427.67 200.708 1446.39 195.903 1469.27 195.903C1484.87 195.903 1498.65 198.501 1510.61 203.695C1522.57 208.629 1531.93 216.161 1538.69 226.29C1545.71 236.418 1549.22 249.404 1549.22 265.246V352.119C1549.22 361.728 1554.03 366.533 1563.65 366.533C1568.33 366.533 1572.88 365.884 1577.3 364.585L1574.96 393.413C1568.98 396.27 1561.44 397.698 1552.34 397.698C1544.02 397.698 1536.48 396.27 1529.72 393.413C1523.22 390.296 1518.02 385.751 1514.12 379.778C1510.48 373.545 1508.66 365.884 1508.66 356.794V354.067L1517.24 353.677C1514.9 363.806 1510.09 372.247 1502.81 378.999C1495.53 385.492 1487.08 390.426 1477.46 393.802C1467.84 396.919 1458.09 398.477 1448.21 398.477C1435.99 398.477 1424.94 396.529 1415.06 392.634C1405.44 388.738 1397.77 382.895 1392.05 375.103C1386.59 367.052 1383.86 357.183 1383.86 345.496C1383.86 330.953 1388.54 319.006 1397.9 309.656C1407.52 300.307 1421.04 293.944 1438.46 290.568L1514.12 275.764L1513.73 304.982L1458.74 316.279C1447.82 318.357 1439.63 321.343 1434.17 325.239C1428.71 329.135 1425.98 334.848 1425.98 342.38C1425.98 349.652 1428.71 355.495 1434.17 359.91C1439.89 364.066 1447.43 366.143 1456.79 366.143C1463.29 366.143 1469.53 365.364 1475.51 363.806C1481.75 362.248 1487.34 359.78 1492.28 356.404C1497.22 352.768 1500.99 348.223 1503.59 342.769C1506.45 337.056 1507.88 330.303 1507.88 322.512V269.531Z" fill="black"/>
<path d="M979.381 398.477C966.641 398.477 954.811 396.14 943.891 391.465C933.232 386.791 924.652 379.259 918.152 368.871C911.652 358.482 908.402 344.977 908.402 328.356V199.799H950.131V317.837C950.131 335.498 953.901 347.704 961.441 354.457C968.981 360.949 979.511 364.196 993.031 364.196C999.531 364.196 1005.77 363.157 1011.75 361.079C1017.99 358.742 1023.58 355.236 1028.52 350.561C1033.46 345.626 1037.23 339.393 1039.83 331.862C1042.69 324.33 1044.12 315.5 1044.12 305.371V199.799H1085.85V394.582H1049.19L1047.24 363.027C1040.48 375.233 1031.38 384.193 1019.94 389.907C1008.5 395.621 994.981 398.477 979.381 398.477Z" fill="black"/>
<path d="M1880.11 167.076C1871.01 167.076 1863.99 164.868 1859.05 160.453C1854.37 155.778 1852.03 149.286 1852.03 140.975C1852.03 132.664 1854.37 126.301 1859.05 121.886C1863.99 117.471 1871.01 115.264 1880.11 115.264C1888.95 115.264 1895.71 117.471 1900.39 121.886C1905.33 126.301 1907.8 132.664 1907.8 140.975C1907.8 149.286 1905.33 155.778 1900.39 160.453C1895.71 164.868 1888.95 167.076 1880.11 167.076ZM1900.78 199.799V394.582H1859.05V199.799H1900.78Z" fill="black"/>
<path d="M1617.59 394.582V199.799H1654.64L1657.37 250.443L1651.91 244.989C1655.55 233.822 1660.75 224.602 1667.51 217.33C1674.53 209.798 1682.72 204.344 1692.08 200.968C1701.7 197.592 1711.84 195.904 1722.5 195.904C1736.28 195.904 1748.63 198.631 1759.55 204.085C1770.73 209.279 1779.57 217.2 1786.07 227.848C1792.57 238.496 1795.82 252.001 1795.82 268.363V394.582H1754.09V281.219C1754.09 262 1750.06 248.755 1742 241.483C1734.2 233.951 1724.32 230.186 1712.36 230.186C1703.78 230.186 1695.46 232.263 1687.4 236.419C1679.34 240.314 1672.58 246.677 1667.12 255.507C1661.92 264.337 1659.32 276.154 1659.32 290.958V394.582H1617.59Z" fill="black"/>
<path d="M1966.07 394.582V199.799H2003.12L2005.07 232.523C2011.83 220.057 2020.8 210.837 2031.98 204.864C2043.42 198.89 2055.51 195.904 2068.25 195.904C2082.29 195.904 2095.16 199.15 2106.86 205.643C2118.82 211.876 2127.79 221.355 2133.77 234.081C2137.93 225.511 2143.65 218.369 2150.93 212.655C2158.21 206.941 2166.27 202.786 2175.11 200.189C2183.95 197.332 2192.66 195.904 2201.24 195.904C2213.72 195.904 2225.42 198.501 2236.34 203.695C2247.26 208.889 2256.1 216.81 2262.86 227.459C2269.62 238.107 2273 251.741 2273 268.363V394.582H2231.27V274.986C2231.27 259.143 2227.5 247.716 2219.96 240.704C2212.42 233.692 2202.8 230.186 2191.1 230.186C2182 230.186 2173.55 232.393 2165.75 236.808C2158.21 241.223 2152.1 247.846 2147.42 256.676C2142.74 265.246 2140.4 275.895 2140.4 288.62V394.582H2098.67V274.986C2098.67 259.143 2094.9 247.716 2087.36 240.704C2079.82 233.692 2070.2 230.186 2058.5 230.186C2050.7 230.186 2042.9 232.263 2035.1 236.419C2027.3 240.574 2020.8 247.067 2015.6 255.897C2010.4 264.727 2007.8 276.414 2007.8 290.958V394.582H1966.07Z" fill="black"/>
<defs>
<linearGradient id="paint0_linear_1160_125" x1="19.8972" y1="-85.8469" x2="515.967" y2="-85.8671" gradientUnits="userSpaceOnUse">
<stop stop-color="#00D1FF"/>
<stop offset="1" stop-color="#65F9C9"/>
</linearGradient>
<linearGradient id="paint1_linear_1160_125" x1="19.8972" y1="-85.8469" x2="515.967" y2="-85.8671" gradientUnits="userSpaceOnUse">
<stop stop-color="#00D1FF"/>
<stop offset="1" stop-color="#65F9C9"/>
</linearGradient>
</defs>
</svg>
